HIERARCHY
ROOT Hips
{
 OFFSET 0.000000 0.000000 0.000000
 CHANNELS 6 Xposition Yposition Zposition Yrotation Xrotation Zrotation
 JOINT Chest
 {
  OFFSET 0.000000 9.585900 0.002600
  CHANNELS 3 Yrotation Xrotation Zrotation
  JOINT Chest2
  {
   OFFSET 0.000000 9.601200 -0.005300
   CHANNELS 3 Yrotation Xrotation Zrotation
   JOINT Chest3
   {
    OFFSET 0.000000 9.561800 0.000000
    CHANNELS 3 Yrotation Xrotation Zrotation
    JOINT Chest4
    {
     OFFSET 0.000000 9.552100 0.000000
     CHANNELS 3 Yrotation Xrotation Zrotation
     JOINT Neck
     {
      OFFSET 0.000000 14.453000 0.000000
      CHANNELS 3 Yrotation Xrotation Zrotation
      JOINT Head
      {
       OFFSET 0.000000 8.936500 -0.011300
       CHANNELS 3 Yrotation Xrotation Zrotation
       End Site
       {
        OFFSET 0.000000 17.073600 -0.006000
       }
      }
     }
     JOINT RightCollar
     {
      OFFSET -2.921100 9.558500 0.000000
      CHANNELS 3 Yrotation Xrotation Zrotation
      JOINT RightShoulder
      {
       OFFSET -13.519700 0.000000 0.000000
       CHANNELS 3 Yrotation Xrotation Zrotation
       JOINT RightElbow
       {
        OFFSET 0.000000 -29.696600 0.000000
        CHANNELS 3 Yrotation Xrotation Zrotation
        JOINT RightWrist
        {
         OFFSET 0.000000 -24.004700 0.000000
         CHANNELS 3 Yrotation Xrotation Zrotation
         End Site
         {
          OFFSET 0.000000 -17.728500 0.000000
         }
        }
       }
      }
     }
     JOINT LeftCollar
     {
      OFFSET 2.921100 9.558500 0.000000
      CHANNELS 3 Yrotation Xrotation Zrotation
      JOINT LeftShoulder
      {
       OFFSET 13.519700 0.000000 0.000000
       CHANNELS 3 Yrotation Xrotation Zrotation
       JOINT LeftElbow
       {
        OFFSET 0.000000 -29.696600 0.000000
        CHANNELS 3 Yrotation Xrotation Zrotation
        JOINT LeftWrist
        {
         OFFSET 0.000000 -24.004700 0.000000
         CHANNELS 3 Yrotation Xrotation Zrotation
         End Site
         {
          OFFSET 0.000000 -17.728500 0.000000
         }
        }
       }
      }
     }
    }
   }
  }
 }
 JOINT RightHip
 {
  OFFSET -7.771700 -0.012900 -0.001300
  CHANNELS 3 Yrotation Xrotation Zrotation
  JOINT RightKnee
  {
   OFFSET 0.000000 -40.869800 0.001200
   CHANNELS 3 Yrotation Xrotation Zrotation
   JOINT RightAnkle
   {
    OFFSET 0.000000 -39.717900 0.002100
    CHANNELS 3 Yrotation Xrotation Zrotation
    JOINT RightToe
    {
     OFFSET 0.000000 -4.965400 11.033500
     CHANNELS 3 Yrotation Xrotation Zrotation
     End Site
     {
      OFFSET 0.000000 -1.423100 5.872300
     }
    }
   }
  }
 }
 JOINT LeftHip
 {
  OFFSET 7.771700 -0.012900 -0.001300
  CHANNELS 3 Yrotation Xrotation Zrotation
  JOINT LeftKnee
  {
   OFFSET 0.000000 -40.869800 0.001200
   CHANNELS 3 Yrotation Xrotation Zrotation
   JOINT LeftAnkle
   {
    OFFSET 0.000000 -39.717900 0.002100
    CHANNELS 3 Yrotation Xrotation Zrotation
    JOINT LeftToe
    {
     OFFSET 0.000000 -4.965400 11.033500
     CHANNELS 3 Yrotation Xrotation Zrotation
     End Site
     {
      OFFSET 0.000000 -1.423100 5.872300
     }
    }
   }
  }
 }
}
MOTION
Frames: 12
Frame Time: 0.008333
0.000000 85.388000 0.000000 0.000000 -5.767877 0.000000 0.000000 11.653817 0.000000 0.000000 -5.885947 0.000000 0.000000 -0.000000 0.000000 0.000000 -0.000000 0.000000 0.000000 12.528835 0.000000 0.000000 0.711642 0.000000 0.000000 -0.000000 0.000000 0.000000 0.000000 -90.000000 0.000000 -2.309062 0.000000 0.000000 2.309062 0.000000 0.000000 -0.000000 0.000000 0.000000 -0.000000 90.000000 0.000000 -2.309062 0.000000 0.000000 2.309062 0.000000 0.000000 8.520406 0.000000 0.000000 1.905762 0.000000 -0.000000 -4.658285 0.000000 0.000000 -0.000000 0.000000 0.000000 8.520406 0.000000 0.000000 1.905762 0.000000 -0.000000 -4.658285 0.000000 0.000000 -0.000000 0.000000
-109.652992 51.678227 -43.848534 175.793391 -21.985701 -0.011332 -6.417907 11.630222 0.354597 -0.544299 0.955730 0.141109 -0.899293 1.609595 0.216950 -5.867622 10.583229 1.003125 -4.020343 17.563519 -0.905023 -4.049216 -7.187623 -0.048131 0.822013 17.500301 8.013148 14.985127 -11.855936 -33.187317 153.845677 -27.564871 171.570934 -12.537754 -4.804681 21.067732 -0.932306 14.529382 -14.185617 -24.208543 -3.206348 38.580779 -168.376295 -36.202624 -165.653584 18.269953 -2.417972 -32.161409 -14.242766 -60.717822 9.296630 -82.865880 79.378856 -91.355633 -4.097991 -12.006662 7.602102 0.302602 -0.945164 0.140799 9.867988 -58.658396 -7.599599 31.535676 83.970258 37.449665 -2.161578 -11.412640 -0.300745 0.186960 0.559186 0.092537
-109.650861 51.679751 -43.847595 175.789456 -21.983239 -0.008040 -6.426847 11.633891 0.361139 -0.538640 0.953658 0.139466 -0.904206 1.612127 0.213076 -5.869582 10.588257 0.998704 -3.976676 17.614467 -0.877782 -4.014187 -7.132145 -0.034080 0.826447 17.492384 8.042680 14.977625 -11.842911 -33.282043 153.903835 -27.542526 171.515783 -12.738834 -4.998498 21.358858 -0.929014 14.518924 -14.176351 -24.422585 -3.254986 38.626532 -168.939316 -36.168681 -165.347624 18.355479 -2.596211 -32.298852 -14.246957 -60.719007 9.301093 -82.842568 79.378326 -91.334659 -4.085646 -11.997987 7.595787 0.295664 -0.951656 0.140858 9.870457 -58.658701 -7.598982 31.511125 83.967410 37.427227 -2.162660 -11.407337 -0.305898 0.185900 0.557462 0.089443
-109.648927 51.681431 -43.846531 175.788539 -21.980325 -0.001446 -6.429205 11.632147 0.359578 -0.539312 0.953538 0.139752 -0.906605 1.616239 0.217370 -5.872206 10.591846 0.997001 -3.934352 17.672790 -0.850532 -3.975475 -7.068994 -0.018501 0.829295 17.482888 8.060799 14.970908 -11.830029 -33.375502 153.975841 -27.507242 171.483608 -12.960269 -5.204108 21.669192 -0.946056 14.495384 -14.149939 -24.666522 -3.311928 38.651061 -169.459390 -36.173781 -165.053404 18.482323 -2.819637 -32.463444 -14.255668 -60.720431 9.305522 -82.819314 79.371711 -91.315437 -4.077371 -11.997484 7.588318 0.295137 -0.948041 0.140554 9.867276 -58.657307 -7.597217 31.475074 83.960920 37.388912 -2.169600 -11.402888 -0.314874 0.191770 0.557350 0.093034
-109.647268 51.684149 -43.847686 175.794359 -21.992156 0.008369 -6.444790 11.644495 0.364106 -0.535278 0.952699 0.125634 -0.910204 1.618989 0.223120 -5.874439 10.596201 0.997570 -3.889062 17.737628 -0.822724 -3.934386 -6.999308 -0.001485 0.832708 17.473774 8.056671 14.974255 -11.820887 -33.462204 154.030624 -27.511579 171.441714 -13.236047 -5.462821 22.045296 -0.957574 14.460887 -14.121455 -24.962544 -3.370695 38.679549 -169.940697 -36.227347 -164.771370 18.653021 -3.100171 -32.642883 -14.260616 -60.707563 9.299585 -82.827972 79.371979 -91.333582 -4.083595 -12.005218 7.584888 0.295025 -0.941160 0.140201 9.865354 -58.638740 -7.599934 31.473840 83.950528 37.381956 -2.182387 -11.397619 -0.321707 0.195374 0.555369 0.098237
-109.644012 51.686408 -43.847610 175.801174 -21.997771 0.010494 -6.455489 11.649859 0.374890 -0.534563 0.953843 0.119861 -0.915136 1.623332 0.234716 -5.882524 10.603729 1.001640 -3.843127 17.801448 -0.805694 -3.893101 -6.925028 0.013450 0.839969 17.454684 8.068273 14.998796 -11.799842 -33.595110 154.100763 -27.609282 171.425038 -13.542026 -5.844085 22.443678 -0.955142 14.415052 -14.111301 -25.318308 -3.434746 38.733101 -170.390775 -36.339243 -164.500087 18.877325 -3.455107 -32.829166 -14.272358 -60.700648 9.307889 -82.839669 79.374946 -91.350598 -4.100017 -12.008545 7.580930 0.306394 -0.935896 0.140978 9.864139 -58.628389 -7.602394 31.470562 83.940155 37.380938 -2.185015 -11.391241 -0.333776 0.192985 0.554972 0.103663
-109.640708 51.688812 -43.848208 175.812578 -22.009131 0.013114 -6.469320 11.660243 0.374348 -0.537129 0.955647 0.125892 -0.912817 1.622340 0.224328 -5.883717 10.605066 1.002723 -3.800804 17.884758 -0.761325 -3.854268 -6.847730 0.024024 0.890140 17.447905 8.175208 15.018020 -11.764184 -33.809869 154.163404 -27.776481 171.372215 -13.900663 -6.308438 22.923521 -0.948523 14.376367 -14.077878 -25.728729 -3.507641 38.819992 -170.819422 -36.520013 -164.232970 19.166542 -3.905210 -33.020252 -14.272405 -60.689834 9.297389 -82.879282 79.398126 -91.388733 -4.124955 -12.020712 7.572461 0.310001 -0.930880 0.145144 9.863253 -58.612299 -7.608815 31.479975 83.929967 37.391164 -2.186580 -11.385648 -0.336889 0.188178 0.555085 0.102037
-109.637364 51.691756 -43.850736 175.840677 -22.034822 0.011473 -6.499254 11.684272 0.371456 -0.543313 0.953456 0.155339 -0.911765 1.628460 0.207123 -5.890227 10.612599 1.012755 -3.765591 17.956411 -0.746040 -3.821623 -6.767386 0.031762 0.927262 17.427661 8.203498 15.066064 -11.723609 -34.011532 154.204945 -27.997972 171.288611 -14.317077 -6.847676 23.483931 -0.940488 14.332615 -14.083860 -26.209971 -3.594409 38.965429 -171.225417 -36.788862 -163.965330 19.532751 -4.472657 -33.213571 -14.277410 -60.664917 9.273867 -82.961997 79.423728 -91.460478 -4.174660 -12.044283 7.557128 0.326172 -0.922937 0.152318 9.844689 -58.581147 -7.614098 31.499770 83.917276 37.414131 -2.194121 -11.380446 -0.343686 0.187746 0.557004 0.101977
-109.636802 51.695066 -43.855193 175.882666 -22.074059 0.022289 -6.548498 11.715855 0.356290 -0.540993 0.955365 0.147834 -0.917199 1.626148 0.239635 -5.901293 10.624730 1.001304 -3.749221 17.986013 -0.756634 -3.786961 -6.640372 0.051680 0.948859 17.412547 8.200939 15.149518 -11.676005 -34.234084 154.234596 -28.298678 171.169188 -14.797575 -7.489318 24.138778 -0.919973 14.264589 -14.084510 -26.786501 -3.657915 39.153708 -171.588808 -37.177154 -163.693687 19.998215 -5.184014 -33.414012 -14.259793 -60.630520 9.219464 -83.007466 79.420255 -91.506606 -4.234843 -12.013074 7.542879 0.386663 -0.961436 0.174885 9.836816 -58.534124 -7.647752 31.525297 83.906609 37.440758 -2.220393 -11.393744 -0.354815 0.217478 0.577864 0.109152
-109.633973 51.696594 -43.856181 175.891052 -22.095005 0.029582 -6.558014 11.726467 0.362482 -0.542177 0.960702 0.138803 -0.910978 1.618370 0.248815 -5.913170 10.640581 1.014207 -3.723254 18.079121 -0.742553 -3.788917 -6.573870 0.049932 1.021091 17.391696 8.251832 15.188137 -11.608232 -34.550404 154.281642 -28.692293 170.989692 -15.352065 -8.241226 24.908986 -0.901995 14.172112 -14.079582 -27.460579 -3.686979 39.397154 -171.931211 -37.699059 -163.391179 20.564332 -6.047624 -33.643884 -14.240413 -60.611841 9.191263 -83.037901 79.425317 -91.534216 -4.240686 -12.026367 7.544386 0.383712 -0.961914 0.170651 9.839739 -58.510190 -7.657198 31.556952 83.900121 37.470758 -2.214114 -11.387183 -0.356678 0.211699 0.574895 0.106872
-109.630437 51.697573 -43.857015 175.895365 -22.118856 0.031401 -6.557239 11.734437 0.373826 -0.543122 0.962109 0.139827 -0.897065 1.612926 0.246574 -5.892186 10.641634 1.054683 -3.758372 18.168503 -0.762145 -3.807321 -6.484221 0.052825 1.017651 17.397052 8.253010 15.224011 -11.545061 -34.912866 154.410234 -29.178484 170.702469 -15.980930 -9.077291 25.816829 -0.944820 14.099393 -14.103059 -28.199862 -3.721774 39.723230 -172.373613 -38.330795 -163.001630 21.213257 -7.020984 -33.930401 -14.221274 -60.589005 9.178560 -83.053726 79.422611 -91.548286 -4.255712 -12.028538 7.545921 0.390142 -0.969500 0.172572 9.837814 -58.483927 -7.649453 31.597208 83.893945 37.506955 -2.219645 -11.390024 -0.355609 0.207810 0.579175 0.106923
-109.625775 51.697913 -43.857504 175.903333 -22.145304 0.020597 -6.511390 11.712077 0.409691 -0.539697 0.962313 0.141503 -0.914763 1.634124 0.234885 -5.869668 10.645890 1.065697 -3.801242 18.257018 -0.758940 -3.855426 -6.384470 0.065791 1.070665 17.408801 8.330943 15.160652 -11.499832 -35.370530 154.722760 -29.753261 170.245513 -16.673861 -9.916168 26.861029 -1.006531 14.021487 -14.094085 -28.971643 -3.787356 40.112884 -173.090903 -39.038691 -162.441273 21.931826 -8.021195 -34.267904 -14.193548 -60.560534 9.166938 -83.064560 79.410323 -91.545184 -4.273665 -12.026494 7.548276 0.405697 -0.977939 0.177640 9.826581 -58.460178 -7.622515 31.571204 83.895512 37.479536 -2.236163 -11.389735 -0.350892 0.210433 0.579880 0.110182
